<svg xmlns="http://www.w3.org/2000/svg" xmlns:xlink="http://www.w3.org/1999/xlink" width="500" zoomAndPan="magnify" viewBox="0 0 375 74.999997" height="100" preserveAspectRatio="xMidYMid meet" version="1.0"><defs><g/><clipPath id="6b42a13cfa"><path d="M 0 30.386719 L 90 30.386719 L 90 75 L 0 75 Z M 0 30.386719 " clip-rule="nonzero"/></clipPath></defs><g clip-path="url(#6b42a13cfa)"><path fill="#000000" d="M 24.796875 58.097656 C 24.523438 58.105469 24.265625 58.113281 23.992188 58.125 C 24.175781 52.640625 24.300781 47.0625 24.300781 40.496094 C 35.359375 54.757812 61.597656 54.757812 80.992188 54.757812 C 59.671875 53.71875 30.265625 54.007812 22.15625 30.394531 C 22.15625 43.804688 21.527344 47.703125 6.957031 52.777344 C 13.894531 52.289062 18.433594 50 22.183594 45.390625 C 22.210938 49.730469 22.257812 53.945312 22.347656 58.1875 C 15.058594 58.519531 7.632812 59.644531 0 63.660156 C 5.011719 62.148438 10.960938 60.773438 22.390625 60.320312 C 22.535156 66.335938 22.769531 72.449219 23.15625 79.132812 C 23.417969 72.105469 23.695312 66.183594 23.914062 60.265625 C 24.21875 60.257812 24.523438 60.25 24.839844 60.238281 C 37.996094 59.90625 57.84375 60.710938 90 63.648438 C 64.953125 59.289062 44.695312 57.582031 24.796875 58.097656 Z M 24.796875 58.097656 " fill-opacity="1" fill-rule="evenodd"/></g><g fill="#000000" fill-opacity="1"><g transform="translate(97.04611, 73.470432)"><g><path d="M 69.1875 0 L 54.1875 0 L 48.765625 -16.609375 L 21.15625 -16.609375 L 15.734375 0 L 1.078125 0 L 25.984375 -72.09375 L 44.28125 -72.09375 Z M 34.265625 -57.046875 L 25 -28.59375 L 44.828125 -28.59375 L 35.5 -57.046875 Z M 34.265625 -57.046875 "/></g></g></g><g fill="#000000" fill-opacity="1"><g transform="translate(167.30226, 73.470432)"><g><path d="M 7.84375 0 L 7.84375 -54.390625 L 20.953125 -54.390625 L 20.953125 -47.09375 L 21.984375 -46.890625 C 23.765625 -49.816406 25.84375 -51.96875 28.21875 -53.34375 C 30.601562 -54.726562 33.65625 -55.421875 37.375 -55.421875 C 41.488281 -55.421875 44.789062 -54.609375 47.28125 -52.984375 C 49.78125 -51.359375 51.609375 -48.984375 52.765625 -45.859375 L 53.796875 -45.859375 C 55.472656 -49.109375 57.632812 -51.515625 60.28125 -53.078125 C 62.925781 -54.640625 66.222656 -55.421875 70.171875 -55.421875 C 81.441406 -55.421875 87.078125 -49.144531 87.078125 -36.59375 L 87.078125 0 L 73.421875 0 L 73.421875 -34.859375 C 73.421875 -38.046875 72.796875 -40.347656 71.546875 -41.765625 C 70.296875 -43.179688 68.289062 -43.890625 65.53125 -43.890625 C 58.03125 -43.890625 54.28125 -38.875 54.28125 -28.84375 L 54.28125 0 L 40.625 0 L 40.625 -34.859375 C 40.625 -38.046875 39.988281 -40.347656 38.71875 -41.765625 C 37.457031 -43.179688 35.445312 -43.890625 32.6875 -43.890625 C 29.175781 -43.890625 26.429688 -42.710938 24.453125 -40.359375 C 22.484375 -38.003906 21.5 -34.265625 21.5 -29.140625 L 21.5 0 Z M 7.84375 0 "/></g></g></g><g fill="#000000" fill-opacity="1"><g transform="translate(261.371548, 73.470432)"><g><path d="M 21.203125 1.03125 C 17.710938 1.03125 14.6875 0.390625 12.125 -0.890625 C 9.5625 -2.171875 7.585938 -4.050781 6.203125 -6.53125 C 4.828125 -9.007812 4.140625 -11.992188 4.140625 -15.484375 C 4.140625 -18.703125 4.828125 -21.40625 6.203125 -23.59375 C 7.585938 -25.78125 9.726562 -27.570312 12.625 -28.96875 C 15.519531 -30.363281 19.300781 -31.441406 23.96875 -32.203125 C 27.21875 -32.722656 29.6875 -33.296875 31.375 -33.921875 C 33.070312 -34.546875 34.21875 -35.253906 34.8125 -36.046875 C 35.40625 -36.835938 35.703125 -37.835938 35.703125 -39.046875 C 35.703125 -40.796875 35.09375 -42.128906 33.875 -43.046875 C 32.65625 -43.960938 30.632812 -44.421875 27.8125 -44.421875 C 24.789062 -44.421875 21.914062 -43.75 19.1875 -42.40625 C 16.457031 -41.0625 14.085938 -39.285156 12.078125 -37.078125 L 11.09375 -37.078125 L 5.375 -45.703125 C 8.132812 -48.765625 11.503906 -51.148438 15.484375 -52.859375 C 19.460938 -54.566406 23.800781 -55.421875 28.5 -55.421875 C 35.695312 -55.421875 40.90625 -53.890625 44.125 -50.828125 C 47.351562 -47.773438 48.96875 -43.4375 48.96875 -37.8125 L 48.96875 -14.203125 C 48.96875 -11.765625 50.035156 -10.546875 52.171875 -10.546875 C 52.992188 -10.546875 53.796875 -10.695312 54.578125 -11 L 55.28125 -10.796875 L 56.265625 -1.28125 C 55.503906 -0.789062 54.445312 -0.390625 53.09375 -0.078125 C 51.75 0.234375 50.273438 0.390625 48.671875 0.390625 C 45.410156 0.390625 42.867188 -0.234375 41.046875 -1.484375 C 39.222656 -2.734375 37.914062 -4.6875 37.125 -7.34375 L 36.09375 -7.453125 C 33.425781 -1.796875 28.460938 1.03125 21.203125 1.03125 Z M 25.546875 -9.171875 C 28.703125 -9.171875 31.222656 -10.226562 33.109375 -12.34375 C 35.003906 -14.46875 35.953125 -17.421875 35.953125 -21.203125 L 35.953125 -26.71875 L 35.015625 -26.921875 C 34.191406 -26.265625 33.113281 -25.710938 31.78125 -25.265625 C 30.445312 -24.828125 28.53125 -24.394531 26.03125 -23.96875 C 23.070312 -23.46875 20.941406 -22.617188 19.640625 -21.421875 C 18.347656 -20.222656 17.703125 -18.523438 17.703125 -16.328125 C 17.703125 -13.984375 18.390625 -12.203125 19.765625 -10.984375 C 21.148438 -9.773438 23.078125 -9.171875 25.546875 -9.171875 Z M 25.546875 -9.171875 "/></g></g></g><g fill="#000000" fill-opacity="1"><g transform="translate(318.710427, 73.470432)"><g><path d="M 25.4375 1.03125 C 21.726562 1.03125 18.328125 0.597656 15.234375 -0.265625 C 12.140625 -1.140625 9.5 -2.335938 7.3125 -3.859375 C 5.132812 -5.390625 3.519531 -7.144531 2.46875 -9.125 L 10.0625 -17.3125 L 11.09375 -17.3125 C 12.90625 -14.875 15.039062 -13.046875 17.5 -11.828125 C 19.96875 -10.617188 22.648438 -10.015625 25.546875 -10.015625 C 28.203125 -10.015625 30.203125 -10.488281 31.546875 -11.4375 C 32.898438 -12.394531 33.578125 -13.757812 33.578125 -15.53125 C 33.578125 -16.914062 33.09375 -18.070312 32.125 -19 C 31.15625 -19.9375 29.585938 -20.671875 27.421875 -21.203125 L 20.21875 -22.921875 C 14.820312 -24.210938 10.882812 -26.179688 8.40625 -28.828125 C 5.925781 -31.472656 4.6875 -34.832031 4.6875 -38.90625 C 4.6875 -42.289062 5.546875 -45.234375 7.265625 -47.734375 C 8.992188 -50.234375 11.425781 -52.140625 14.5625 -53.453125 C 17.707031 -54.765625 21.367188 -55.421875 25.546875 -55.421875 C 30.441406 -55.421875 34.5 -54.710938 37.71875 -53.296875 C 40.9375 -51.890625 43.453125 -50 45.265625 -47.625 L 37.96875 -39.75 L 36.984375 -39.75 C 35.472656 -41.457031 33.769531 -42.703125 31.875 -43.484375 C 29.988281 -44.273438 27.878906 -44.671875 25.546875 -44.671875 C 20.148438 -44.671875 17.453125 -42.992188 17.453125 -39.640625 C 17.453125 -38.234375 17.953125 -37.082031 18.953125 -36.1875 C 19.960938 -35.300781 21.734375 -34.578125 24.265625 -34.015625 L 30.96875 -32.546875 C 36.488281 -31.359375 40.519531 -29.457031 43.0625 -26.84375 C 45.613281 -24.226562 46.890625 -20.722656 46.890625 -16.328125 C 46.890625 -12.867188 46.035156 -9.820312 44.328125 -7.1875 C 42.617188 -4.5625 40.148438 -2.535156 36.921875 -1.109375 C 33.703125 0.316406 29.875 1.03125 25.4375 1.03125 Z M 25.4375 1.03125 "/></g></g></g></svg>